<svg xmlns="http://www.w3.org/2000/svg" version="1.1" xmlns:xlink="http://www.w3.org/1999/xlink" xmlns:svgjs="http://svgjs.dev/svgjs" width="1000" height="1000" viewBox="0 0 1000 1000"><rect width="1000" height="1000" fill="#ffffff"></rect><g transform="matrix(0.7,0,0,0.7,149.5757587648032,403.46976000993584)"><svg viewBox="0 0 396 109" data-background-color="#ffffff" preserveAspectRatio="xMidYMid meet" height="275" width="1000" xmlns="http://www.w3.org/2000/svg" xmlns:xlink="http://www.w3.org/1999/xlink"><g id="tight-bounds" transform="matrix(1,0,0,1,0.2399993273398877,0.15868134984373228)"><svg viewBox="0 0 395.52 108.68262211611123" height="108.68262211611123" width="395.52"><g><svg viewBox="0 0 605.4716477248841 166.37400458055924" height="108.68262211611123" width="395.52"><g transform="matrix(1,0,0,1,209.95164772488405,51.41198231691078)"><svg viewBox="0 0 395.52 63.550039946737684" height="63.550039946737684" width="395.52"><g><svg viewBox="0 0 395.52 63.550039946737684" height="63.550039946737684" width="395.52"><g><svg viewBox="0 0 395.52 63.550039946737684" height="63.550039946737684" width="395.52"><g transform="matrix(1,0,0,1,0,0)"><svg width="395.52" viewBox="3.700000047683716 -35.599998474121094 225.27999877929688 36.19999694824219" height="63.550039946737684" data-palette-color="#c7efe0"><path d="M25.35 0L3.7 0 3.7-35 25.35-35 25.35-31.55 7.9-31.55 7.9-19.35 23.85-19.35 23.85-15.95 7.9-15.95 7.9-3.45 25.35-3.45 25.35 0ZM34.1 0L29.7 0 42.6-35 47.05-35 59.9 0 55.45 0 52.25-9 37.35-9 34.1 0ZM44.8-29.7L38.6-12.4 51-12.4 44.8-29.7ZM76.25 0.6L76.25 0.6Q72.4 0.6 69.55-0.8 66.7-2.2 65.15-4.7 63.6-7.2 63.6-10.5L63.6-10.5 68-10.5Q68-8.45 68.95-6.73 69.9-5 71.72-3.98 73.55-2.95 76.25-2.95L76.25-2.95Q79.8-2.95 81.75-4.65 83.7-6.35 83.7-8.9L83.7-8.9Q83.7-11 82.8-12.28 81.9-13.55 80.37-14.35 78.85-15.15 76.87-15.75 74.9-16.35 72.75-17.1L72.75-17.1Q68.7-18.5 66.75-20.58 64.8-22.65 64.8-26L64.8-26Q64.75-28.8 66.1-30.98 67.45-33.15 69.92-34.38 72.4-35.6 75.8-35.6L75.8-35.6Q79.15-35.6 81.62-34.35 84.1-33.1 85.47-30.9 86.85-28.7 86.9-25.9L86.9-25.9 82.5-25.9Q82.5-27.35 81.75-28.78 81-30.2 79.47-31.1 77.95-32 75.65-32L75.65-32Q72.8-32.05 70.97-30.55 69.15-29.05 69.15-26.4L69.15-26.4Q69.15-24.15 70.42-22.95 71.7-21.75 74-20.98 76.3-20.2 79.3-19.2L79.3-19.2Q81.8-18.3 83.8-17.1 85.8-15.9 86.92-14 88.05-12.1 88.05-9.15L88.05-9.15Q88.05-6.65 86.75-4.42 85.45-2.2 82.82-0.8 80.2 0.6 76.25 0.6ZM105.39 0L101.19 0 101.19-13.3 89.79-35 94.54-35 103.29-17.3 112.04-35 116.74-35 105.39-13.3 105.39 0ZM143.09 0L121.44 0 121.44-35 143.09-35 143.09-31.55 125.64-31.55 125.64-19.35 141.59-19.35 141.59-15.95 125.64-15.95 125.64-3.45 143.09-3.45 143.09 0ZM151.84 0L147.44 0 160.34-35 164.79-35 177.64 0 173.19 0 169.99-9 155.09-9 151.84 0ZM162.54-29.7L156.34-12.4 168.74-12.4 162.54-29.7ZM191.29 0L187.09 0 187.09-31.55 176.64-31.55 176.64-35 201.74-35 201.74-31.55 191.29-31.55 191.29 0ZM217.18 0.6L217.18 0.6Q213.33 0.6 210.48-0.8 207.63-2.2 206.08-4.7 204.53-7.2 204.53-10.5L204.53-10.5 208.93-10.5Q208.93-8.45 209.88-6.73 210.83-5 212.66-3.98 214.48-2.95 217.18-2.95L217.18-2.95Q220.73-2.95 222.68-4.65 224.63-6.35 224.63-8.9L224.63-8.9Q224.63-11 223.73-12.28 222.83-13.55 221.31-14.35 219.78-15.15 217.81-15.75 215.83-16.35 213.68-17.1L213.68-17.1Q209.63-18.5 207.68-20.58 205.73-22.65 205.73-26L205.73-26Q205.68-28.8 207.03-30.98 208.38-33.15 210.86-34.38 213.33-35.6 216.73-35.6L216.73-35.6Q220.08-35.6 222.56-34.35 225.03-33.1 226.41-30.9 227.78-28.7 227.83-25.9L227.83-25.9 223.43-25.9Q223.43-27.35 222.68-28.78 221.93-30.2 220.41-31.1 218.88-32 216.58-32L216.58-32Q213.73-32.05 211.91-30.55 210.08-29.05 210.08-26.4L210.08-26.4Q210.08-24.15 211.36-22.95 212.63-21.75 214.93-20.98 217.23-20.2 220.23-19.2L220.23-19.2Q222.73-18.3 224.73-17.1 226.73-15.9 227.86-14 228.98-12.1 228.98-9.15L228.98-9.15Q228.98-6.65 227.68-4.42 226.38-2.2 223.76-0.8 221.13 0.6 217.18 0.6Z" opacity="1" transform="matrix(1,0,0,1,0,0)" fill="#000000" class="undefined-text-0" data-fill-palette-color="primary" id="text-0"></path></svg></g></svg></g></svg></g></svg></g><g><svg viewBox="0 0 194.949008494418 166.37400458055924" height="166.37400458055924" width="194.949008494418"><g><svg xmlns="http://www.w3.org/2000/svg" xmlns:xlink="http://www.w3.org/1999/xlink" version="1.1" x="0" y="0" viewBox="0 1.8980000019073486 50.38999938964844 43.00399398803711" enable-background="new 0 0 50.4 50.4" xml:space="preserve" width="194.949008494418" height="166.37400458055924" class="icon-icon-0" data-fill-palette-color="accent" id="icon-0"><path d="M23.94 38.405c0.08 0.38 0.07 0.775-0.037 1.155-0.095 0.354-0.288 0.687-0.55 0.967-0.888 0.899-2.341 0.92-3.248 0.045l-4.5-4.389-0.866 1.06 4.501 4.395c1.229 1.194 3.899 1.116 5.105-0.108 0.42-0.427 1.01-1.396 1.136-1.959l11.861 0.01c1.278 0 2.541 1.192 2.541 2.462 0 1.287-0.836 2.859-2.594 2.859H18.284c-0.822-0.03-1.847-0.45-2.565-1.055l-9.927-7.453-5.781 0.025L0 27.766h0.05v-0.078h11.532c0 0 1.208 0.027 2.04 0.51 0.766 0.447 1.447 1.103 1.447 1.103l8.231 7.993C23.613 37.595 23.833 37.977 23.94 38.405z" fill="#000000" data-fill-palette-color="accent"></path><path d="M46.037 25.761c0.079-0.149 0.18-0.29 0.239-0.455 0.391-1.05 0.34-2.199-0.145-3.236-0.436-0.927-1.2-1.692-2.135-2.154 0.105-1.902-1.114-3.717-3.099-4.411-0.925-0.32-1.93-0.35-2.854-0.105-0.552-0.762-1.343-1.352-2.279-1.677-0.521-0.183-1.061-0.272-1.608-0.272-1.799 0-3.419 1.01-4.129 2.552-1.864 0.042-3.519 1.165-4.137 2.816-0.173 0.463-0.259 0.945-0.262 1.428-1.682 0.189-3.134 1.262-3.704 2.791-0.335 0.893-0.33 1.845-0.045 2.725H17.28l9.749 11.207h14.034l9.327-11.207H46.037zM23.976 23.802c0.37-0.989 1.571-1.584 2.738-1.339l1.977 0.415-0.733-1.883c-0.181-0.467-0.188-0.952-0.016-1.407 0.359-0.97 1.496-1.575 2.668-1.354l1.064 0.19 0.203-1.064c0.022-0.107 0.048-0.215 0.087-0.317 0.408-1.093 1.833-1.688 3.083-1.25 0.695 0.24 1.238 0.742 1.485 1.375l0.455 1.149 1.087-0.59c0.622-0.335 1.403-0.397 2.104-0.152 1.215 0.42 1.895 1.614 1.539 2.714l-0.359 1.109 1.135 0.285c0.069 0.018 0.14 0.035 0.22 0.065 0.645 0.222 1.164 0.68 1.439 1.255 0.229 0.494 0.255 1.044 0.069 1.539-0.209 0.567-0.68 1-1.299 1.22H24.317C23.87 25.186 23.732 24.457 23.976 23.802z" fill="#000000" data-fill-palette-color="accent"></path><polygon points="29.636,13.455 28.45,13.455 28.45,6.617 29.636,6.617 29.636,13.455 " fill="#000000" data-fill-palette-color="accent"></polygon><polygon points="33.155,10.976 31.969,10.976 31.969,1.898 33.155,1.898 33.155,10.976 " fill="#000000" data-fill-palette-color="accent"></polygon><polygon points="36.675,11.615 35.488,11.615 35.488,5.817 36.675,5.817 36.675,11.615 " fill="#000000" data-fill-palette-color="accent"></polygon></svg></g></svg></g></svg></g><defs></defs></svg><rect width="395.52" height="108.68262211611123" fill="none" stroke="none" visibility="hidden"></rect></g></svg></g></svg>